# xmcd
#
# Track frame offsets:
#	150
#	17232
#	27740
#	44962
#	58207
#	71150
#	82267
#	97372
#	111907
#	127960
#	142792
#	153532
#	164477
#	178170
#	192435
#	209600
#	223585
#	237575
#	251852
#
# Disc length: 3525 seconds
#
# Revision: 0
# Processed by: cddbd v1.5.2PL0 Copyright (c) Steve Scherf et al.
# Submitted via: EasyCDDAExtractor 15.3.0.1
#
DISCID=3e0dc313
DTITLE=Reader's Digest Music - Don't Rock The Jukebox  [Country's All-Time Fav
DTITLE=orites]  [Disc 4 of 4]
DYEAR=2010
DGENRE=Country
TTITLE0=Kenny Rogers - You Decorated My Life
TTITLE1=Conway Twitty - I Can't Believe She Gives It All To Me
TTITLE2=Don Williams - I Believe In You
TTITLE3=Bobby Helms - My Special Angel
TTITLE4=Don Gibson - I Can't Stop Lovin' You
TTITLE5=Hank Locklin - Send Me The Pillow You Dream On
TTITLE6=Ed Bruce - You're The Best Break This Old Heart Ever Had
TTITLE7=Lane Brody - I'll Have To Say I Love You In A Song
TTITLE8=Johnny Lee - Lookin' For Love
TTITLE9=B.J. Thomas - I'm So Lonesome I Could Cry
TTITLE10=Patsy Cline - Lovesick Blues
TTITLE11=Charlie Rich - There Won't Be Anymore
TTITLE12=T. Graham Brown - I Wish I Could Hurt That Way Again
TTITLE13=Lynn Anderson - Cry
TTITLE14=Conway Twitty - Don't Cry
TTITLE15=The Kendalls - Cryin' Time
TTITLE16=Don Williams - Crying In The Rain
TTITLE17=Brenda Lee - The End Of The World
TTITLE18=Roger Miller - The Last Word In Lonesome Is Me
EXTD=
EXTT0=
EXTT1=
EXTT2=
EXTT3=
EXTT4=
EXTT5=
EXTT6=
EXTT7=
EXTT8=
EXTT9=
EXTT10=
EXTT11=
EXTT12=
EXTT13=
EXTT14=
EXTT15=
EXTT16=
EXTT17=
EXTT18=
PLAYORDER=
